REM DIRINDEX 1\3,1\2\4,1\2\5,1\2\6
REM DIRNAME cjc137,folder01,folder02,folder03,folder04,folder05
TITLE ""
FILE "049.mp3" MP3
  TRACK 01 AUDIO
    TITLE "4:cjc137_2014"
    INDEX 01 00:00:00
  TRACK 02 AUDIO
    TITLE "0:"
    INDEX 01 00:01:13
  TRACK 03 AUDIO
    TITLE "6:cjc137_2015"
    INDEX 01 00:01:22
  TRACK 04 AUDIO
    TITLE "0:"
    INDEX 01 00:02:30
  TRACK 05 AUDIO
    TITLE "5:cjc137_2016"
    INDEX 01 00:02:42
  TRACK 06 AUDIO
    TITLE "0:"
    INDEX 01 00:03:51
  TRACK 07 AUDIO
    TITLE "4:cjc137_2017"
    INDEX 01 00:04:64
  TRACK 08 AUDIO
    TITLE "0:"
    INDEX 01 00:06:00
  TRACK 09 AUDIO
    TITLE "6:cjc137_2018"
    INDEX 01 00:06:06
  TRACK 10 AUDIO
    TITLE "0:"
    INDEX 01 00:07:00
  TRACK 11 AUDIO
    TITLE "5:cjc137_2019"
    INDEX 01 00:07:09
  TRACK 12 AUDIO
    TITLE "0:"
    INDEX 01 00:08:19
  TRACK 13 AUDIO
    TITLE "4:cjc137_2020"
    INDEX 01 00:09:26
  TRACK 14 AUDIO
    TITLE "0:"
    INDEX 01 00:10:45
  TRACK 15 AUDIO
    TITLE "6:cjc137_2021"
    INDEX 01 00:10:53
  TRACK 16 AUDIO
    TITLE "0:"
    INDEX 01 00:11:60
  TRACK 17 AUDIO
    TITLE "5:cjc137_2022"
    INDEX 01 00:11:68
  TRACK 18 AUDIO
    TITLE "0:"
    INDEX 01 00:13:12
  TRACK 19 AUDIO
    TITLE "4:cjc137_2023"
    INDEX 01 00:14:21
  TRACK 20 AUDIO
    TITLE "0:"
    INDEX 01 00:15:27
  TRACK 21 AUDIO
    TITLE "6:cjc137_2024"
    INDEX 01 00:15:34
  TRACK 22 AUDIO
    TITLE "0:"
    INDEX 01 00:16:34
  TRACK 23 AUDIO
    TITLE "5:cjc137_2025"
    INDEX 01 00:16:42
  TRACK 24 AUDIO
    TITLE "0:"
    INDEX 01 00:17:45
  TRACK 25 AUDIO
    TITLE "4:cjc137_2026"
    INDEX 01 00:18:54
  TRACK 26 AUDIO
    TITLE "0:"
    INDEX 01 00:19:63
  TRACK 27 AUDIO
    TITLE "6:cjc137_2027"
    INDEX 01 00:19:69
  TRACK 28 AUDIO
    TITLE "0:"
    INDEX 01 00:21:04
  TRACK 29 AUDIO
    TITLE "5:cjc137_2028"
    INDEX 01 00:21:09
  TRACK 30 AUDIO
    TITLE "0:"
    INDEX 01 00:22:19
  TRACK 31 AUDIO
    TITLE "4:cjc137_2029"
    INDEX 01 00:23:26
  TRACK 32 AUDIO
    TITLE "0:"
    INDEX 01 00:24:27
  TRACK 33 AUDIO
    TITLE "6:cjc137_2030"
    INDEX 01 00:24:35
  TRACK 34 AUDIO
    TITLE "0:"
    INDEX 01 00:25:39
  TRACK 35 AUDIO
    TITLE "5:cjc137_2031"
    INDEX 01 00:25:48
  TRACK 36 AUDIO
    TITLE "0:"
    INDEX 01 00:26:48
  TRACK 37 AUDIO
    TITLE "4:cjc137_2032"
    INDEX 01 00:27:57
  TRACK 38 AUDIO
    TITLE "0:"
    INDEX 01 00:28:64
  TRACK 39 AUDIO
    TITLE "6:cjc137_2033"
    INDEX 01 00:28:70
  TRACK 40 AUDIO
    TITLE "0:"
    INDEX 01 00:30:01
  TRACK 41 AUDIO
    TITLE "5:cjc137_2034"
    INDEX 01 00:30:06
  TRACK 42 AUDIO
    TITLE "0:"
    INDEX 01 00:31:12
  TRACK 43 AUDIO
    TITLE "4:cjc137_2035"
    INDEX 01 00:32:21
  TRACK 44 AUDIO
    TITLE "0:"
    INDEX 01 00:33:30
  TRACK 45 AUDIO
    TITLE "6:cjc137_2036"
    INDEX 01 00:33:38
  TRACK 46 AUDIO
    TITLE "0:"
    INDEX 01 00:34:51
  TRACK 47 AUDIO
    TITLE "5:cjc137_2037"
    INDEX 01 00:34:57
  TRACK 48 AUDIO
    TITLE "0:"
    INDEX 01 00:35:66
  TRACK 49 AUDIO
    TITLE "4:cjc137_2038"
    INDEX 01 00:36:74
  TRACK 50 AUDIO
    TITLE "0:"
    INDEX 01 00:38:22
  TRACK 51 AUDIO
    TITLE "6:cjc137_2039"
    INDEX 01 00:38:31
  TRACK 52 AUDIO
    TITLE "0:"
    INDEX 01 00:39:43
  TRACK 53 AUDIO
    TITLE "5:cjc137_2040"
    INDEX 01 00:39:49
  TRACK 54 AUDIO
    TITLE "0:"
    INDEX 01 00:40:73
  TRACK 55 AUDIO
    TITLE "4:cjc137_2041"
    INDEX 01 00:42:08
  TRACK 56 AUDIO
    TITLE "0:"
    INDEX 01 00:43:25
  TRACK 57 AUDIO
    TITLE "6:cjc137_2042"
    INDEX 01 00:43:31
  TRACK 58 AUDIO
    TITLE "0:"
    INDEX 01 00:44:40
  TRACK 59 AUDIO
    TITLE "5:cjc137_2043"
    INDEX 01 00:44:48
  TRACK 60 AUDIO
    TITLE "0:"
    INDEX 01 00:45:63
  TRACK 61 AUDIO
    TITLE "4:cjc137_2044"
    INDEX 01 00:46:72
  TRACK 62 AUDIO
    TITLE "0:"
    INDEX 01 00:48:10
  TRACK 63 AUDIO
    TITLE "6:cjc137_2045"
    INDEX 01 00:48:18
  TRACK 64 AUDIO
    TITLE "0:"
    INDEX 01 00:49:55
  TRACK 65 AUDIO
    TITLE "5:cjc137_2046"
    INDEX 01 00:49:65
  TRACK 66 AUDIO
    TITLE "0:"
    INDEX 01 00:51:01
  TRACK 67 AUDIO
    TITLE "4:cjc137_2047"
    INDEX 01 00:52:08
  TRACK 68 AUDIO
    TITLE "0:"
    INDEX 01 00:53:09
  TRACK 69 AUDIO
    TITLE "6:cjc137_2048"
    INDEX 01 00:53:13
  TRACK 70 AUDIO
    TITLE "0:"
    INDEX 01 00:54:36
  TRACK 71 AUDIO
    TITLE "5:cjc137_2049"
    INDEX 01 00:54:44
  TRACK 72 AUDIO
    TITLE "0:"
    INDEX 01 00:55:42
  TRACK 73 AUDIO
    TITLE "4:cjc137_2050"
    INDEX 01 00:56:49
  TRACK 74 AUDIO
    TITLE "0:"
    INDEX 01 00:57:54
  TRACK 75 AUDIO
    TITLE "6:cjc137_2051"
    INDEX 01 00:57:64
  TRACK 76 AUDIO
    TITLE "0:"
    INDEX 01 00:59:22
  TRACK 77 AUDIO
    TITLE "5:cjc137_2052"
    INDEX 01 00:59:28
  TRACK 78 AUDIO
    TITLE "0:"
    INDEX 01 01:00:33
  TRACK 79 AUDIO
    TITLE "4:cjc137_2053"
    INDEX 01 01:01:44
  TRACK 80 AUDIO
    TITLE "0:"
    INDEX 01 01:02:55
  TRACK 81 AUDIO
    TITLE "6:cjc137_2054"
    INDEX 01 01:02:63
  TRACK 82 AUDIO
    TITLE "0:"
    INDEX 01 01:04:11
  TRACK 83 AUDIO
    TITLE "5:cjc137_2055"
    INDEX 01 01:04:19
  TRACK 84 AUDIO
    TITLE "0:"
    INDEX 01 01:05:30
